<svg xmlns="http://www.w3.org/2000/svg" viewBox="0 0 54 54"><g fill="#4FBA6F"><path d="M53 27c0 14.36-11.64 26-26 26S1 41.36 1 27 12.64 1 27 1s26 11.64 26 26z"/><path d="M27 54C12.112 54 0 41.888 0 27S12.112 0 27 0s27 12.112 27 27-12.112 27-27 27zm0-52C13.215 2 2 13.215 2 27s11.215 25 25 25 25-11.215 25-25S40.785 2 27 2z"/></g><path d="M39 32.706c-.256 0-.512-.098-.707-.293L27 21.12 15.707 32.413c-.39.39-1.023.39-1.414 0s-.39-1.023 0-1.414L25.79 19.5c.667-.665 1.753-.665 2.42 0L39.706 31c.39.39.39 1.022 0 1.413-.195.195-.45.293-.707.293z" fill="#FFF"/></svg>